# xmcd
#
# Track frame offsets: 
#        150
#        18935
#        34359
#        55330
#        72714
#        97698
#        116604
#        137242
#        161304
#        183501
#
# Disc length: 2672 seconds
#
# Revision: 0
# Processed by: cddbd v1.5.2PL0 Copyright (c) Steve Scherf et al.
# Submitted via: ExactAudioCopyFreeDBPlugin 1.0
#
DISCID=860a6e0a
DTITLE=GABRIELE POLLINA - Handpan Improvisation
DYEAR=1900
DGENRE=Instrumental
TTITLE0=Joyful Dawn
TTITLE1=Full Moon Marathon
TTITLE2=The Harvest
TTITLE3=April
TTITLE4=Remembering The Rains
TTITLE5=Patterns
TTITLE6=Melted Ice
TTITLE7=Heartbeat
TTITLE8=Clessidra
TTITLE9=Chimerical
EXTD=
EXTT0=
EXTT1=
EXTT2=
EXTT3=
EXTT4=
EXTT5=
EXTT6=
EXTT7=
EXTT8=
EXTT9=
PLAYORDER=
